<svg width="1333" height="509" viewBox="0 0 1333 509" fill="none" xmlns="http://www.w3.org/2000/svg">
<g clip-path="url(#clip0_212_16580)" filter="url(#filter0_f_212_16580)">
<path opacity="0.15" d="M1126.71 264.478C1150.28 290.591 1169.4 335.988 1134.17 368.038C1130.53 371.342 1096.45 401.322 1045.18 397.599C982.74 393.065 969.936 343.987 901.025 331.246C826.398 317.449 782.599 364.132 746.155 349.791C703.06 332.834 697.77 241.379 775.771 202.181C869.737 154.961 1063.32 194.264 1126.71 264.478Z" fill="#EBC136"/>
<path opacity="0.15" d="M539.344 399.485C561.195 386.059 585.006 359.009 570.218 331.647C568.694 328.827 554.129 303.041 519.952 296.831C478.325 289.267 457.683 319.844 409.797 316.659C357.939 313.209 341.277 274.631 314.04 278.02C281.834 282.027 255.41 342.155 296.131 381.539C345.188 428.983 480.588 435.586 539.344 399.485Z" fill="#EBC136"/>
<path opacity="0.15" d="M667.608 323.625C656.783 308.776 645.722 280.207 655.207 253.903C656.185 251.191 665.458 226.444 684.001 222.529C706.586 217.762 715.752 249.636 741.406 249.653C769.188 249.672 780.334 212.304 794.618 217.501C811.507 223.646 821.998 285.381 798.01 321.947C769.112 365.998 696.716 363.552 667.608 323.625Z" fill="#EBC136"/>
<path opacity="0.15" d="M659.091 290.473C670.921 282.955 683.821 267.824 675.84 252.549C675.017 250.974 667.155 236.579 648.67 233.136C626.155 228.943 614.967 246.041 589.064 244.299C561.012 242.412 552.024 220.871 537.287 222.786C519.861 225.049 505.525 258.662 527.528 280.634C554.034 307.103 627.28 310.688 659.091 290.473Z" fill="#EBC136"/>
<path opacity="0.15" d="M1168.51 271.86C1181.27 260.371 1195.3 237.452 1187.03 214.71C1186.18 212.366 1178.03 190.941 1158.34 186.128C1134.37 180.266 1122.14 206.102 1094.51 203.977C1064.59 201.676 1055.35 169.563 1039.58 172.709C1020.93 176.429 1005.06 227.073 1028.19 259.588C1056.06 298.757 1134.21 302.753 1168.51 271.86Z" fill="#8047F8"/>
<path opacity="0.15" d="M1176.94 363.025C1186.86 370.735 1197.73 386.169 1191.18 401.585C1190.5 403.174 1184.04 417.7 1168.65 421.044C1149.9 425.118 1140.45 407.703 1118.86 409.267C1095.47 410.96 1088.13 432.717 1075.82 430.662C1061.27 428.232 1049.08 394.058 1067.28 371.966C1089.2 345.351 1150.27 342.292 1176.94 363.025Z" fill="#8047F8"/>
<path opacity="0.15" d="M333.713 193.378C342.556 208.673 351.297 237.848 342.688 264.204C341.801 266.922 333.406 291.709 317.617 295.19C298.385 299.43 291.321 266.96 269.595 266.282C246.068 265.548 235.81 303.049 223.827 297.426C209.658 290.777 202.126 228.076 223.242 191.715C248.68 147.913 309.937 152.251 333.713 193.378Z" fill="#EBC136"/>
<path opacity="0.15" d="M785.04 401.813C766.83 388.282 749.131 361.143 767.748 333.93C769.667 331.125 787.803 305.484 820.982 299.497C861.396 292.205 875.508 322.843 921.045 319.959C970.358 316.835 992.673 278.441 1017.68 281.989C1047.24 286.186 1061.68 346.348 1016.63 385.398C962.348 432.441 834.005 438.199 785.04 401.813Z" fill="#EBC136"/>
<path opacity="0.15" d="M733.275 378.293C748.5 364.898 764.458 339.124 752.3 315.385C751.047 312.938 739.132 290.604 713.935 287.065C683.246 282.755 669.774 311.513 634.751 311.519C596.823 311.525 582.73 277.804 563.075 282.488C539.832 288.026 523.654 343.728 555.303 376.731C593.43 416.49 692.337 414.309 733.275 378.293Z" fill="#8047F8"/>
<path opacity="0.15" d="M766.725 196.273C795.249 203.779 825.54 217.719 803.914 229.541C801.684 230.76 780.458 241.865 734.111 242.743C677.659 243.813 651.854 228.424 587.267 227.096C517.323 225.658 492.462 242.573 456.057 239.406C413.01 235.662 381.314 206.229 438.575 190.35C507.556 171.22 690.027 176.089 766.725 196.273Z" fill="#8047F8"/>
<path opacity="0.15" d="M297.275 366.555C310.702 350.959 324.859 321.154 314.38 294.117C313.299 291.329 303.023 265.899 280.983 262.229C254.139 257.758 242.138 290.946 211.468 291.492C178.255 292.083 166.151 253.626 148.906 259.301C128.513 266.01 113.952 330.141 141.434 367.503C174.541 412.513 261.171 408.491 297.275 366.555Z" fill="#8047F8"/>
</g>
<defs>
<filter id="filter0_f_212_16580" x="0" y="-63" width="1333" height="703" filterUnits="userSpaceOnUse" color-interpolation-filters="sRGB">
<feFlood flood-opacity="0" result="BackgroundImageFix"/>
<feBlend mode="normal" in="SourceGraphic" in2="BackgroundImageFix" result="shape"/>
<feGaussianBlur stdDeviation="80" result="effect1_foregroundBlur_212_16580"/>
</filter>
<clipPath id="clip0_212_16580">
<rect width="1013" height="383" fill="white" transform="translate(160 97)"/>
</clipPath>
</defs>
</svg>
